<svg width="58" height="44" viewBox="0 0 58 44" fill="none" xmlns="http://www.w3.org/2000/svg">
<path d="M27.5625 1.5L26.335 3.72461L15.0352 24.2061C16.7692 24.6619 18.2348 25.4968 19.3477 26.7764H19.3486C20.8412 28.3934 21.5938 30.3506 21.5938 32.5684C21.5937 35.3214 20.6175 37.676 18.6562 39.5146L18.6367 39.5322L18.6182 39.5488C16.7058 41.2222 14.4559 42.0762 11.9316 42.0762C9.11672 42.0761 6.69164 41.2523 4.7793 39.5293L4.40332 39.1729C2.46099 37.2305 1.50003 34.7871 1.5 31.9521C1.5 29.1922 2.30509 26.337 3.82422 23.4072L3.83398 23.3896C5.36498 20.5318 7.2061 16.9521 9.3584 12.6475L14.4365 2.33691L14.8486 1.5H27.5625ZM55.2832 1.5L54.0557 3.72461L42.7549 24.2061C44.4889 24.6619 45.9545 25.4968 47.0674 26.7764H47.0684C48.561 28.3934 49.3145 30.3506 49.3145 32.5684C49.3144 35.3214 48.3372 37.676 46.376 39.5146L46.3574 39.5322L46.3379 39.5488C44.4256 41.2221 42.1765 42.0761 39.6523 42.0762C36.6495 42.0762 34.0895 41.1393 32.123 39.1729C30.1808 37.2305 29.2198 34.7871 29.2197 31.9521C29.2197 29.1922 30.0248 26.337 31.5439 23.4072L31.5537 23.3896C33.0847 20.5318 34.9258 16.9521 37.0781 12.6475L42.1562 2.33691L42.5684 1.5H55.2832Z" fill="#2E5072" stroke="#2E5072" stroke-width="3"/>
</svg>
